# xmcd
#
# Track frame offsets:
#	150
#	17077
#	31472
#	63150
#	85715
#	119825
#	139722
#	154312
#	182450
#	206565
#	227070
#	256317
#
# Disc length: 3717 seconds
#
# Revision: 3
# Processed by: cddbd v1.5.2PL0 Copyright (c) Steve Scherf et al.
# Submitted via: VUPlayer 2.49
#
DISCID=9e0e830c
DTITLE=Various Artist - Blues Volume 1
DYEAR=1987
DGENRE=Blues
TTITLE0=Fleedwood Mac - Need Your Love So Bad
TTITLE1=Valerie Wellington - A Fool for You
TTITLE2=Derek and the Dominoes - Have You Ever Loved A Woman
TTITLE3=James Cotton - Sunny Road
TTITLE4=Flavium - Double Trouble
TTITLE5=Eddie Boyd - The Train is Comming
TTITLE6=Chicken Shack - I'd Rather Go Blind
TTITLE7=John Watkins - Chainted To Your Love
TTITLE8=Lonnie Mack - Stop
TTITLE9=Koko Taylor - I'm A Woman
TTITLE10=Albert Collins, Robert Cray and Johnny Copeland - Blackjack
TTITLE11=Johnny Winter - Murdering Blues
EXTD=
EXTT0=
EXTT1=
EXTT2=
EXTT3=
EXTT4=
EXTT5=
EXTT6=
EXTT7=
EXTT8=
EXTT9=
EXTT10=
EXTT11=
PLAYORDER=
